<svg width="186" height="110" viewBox="0 0 186 110" fill="none" xmlns="http://www.w3.org/2000/svg">
<g clip-path="url(#clip0_2001_2587)">
<rect width="186" height="110" rx="12" fill="#F8F7FF"/>
<g filter="url(#filter0_dddd_2001_2587)">
<mask id="path-2-inside-1_2001_2587" fill="white">
<path d="M156.352 43.9724C159.993 44.9484 162.155 48.6919 161.179 52.3339L138.525 136.879C137.549 140.521 133.806 142.682 130.164 141.706L70.8754 125.82C67.2334 124.844 65.072 121.101 66.0479 117.459L88.7016 32.9136C89.6775 29.2716 93.4211 27.1102 97.0631 28.0861L156.352 43.9724Z"/>
</mask>
<path d="M156.352 43.9724C159.993 44.9484 162.155 48.6919 161.179 52.3339L138.525 136.879C137.549 140.521 133.806 142.682 130.164 141.706L70.8754 125.82C67.2334 124.844 65.072 121.101 66.0479 117.459L88.7016 32.9136C89.6775 29.2716 93.4211 27.1102 97.0631 28.0861L156.352 43.9724Z" fill="white"/>
<path d="M156.352 43.9724L156.646 42.8733L156.646 42.8733L156.352 43.9724ZM161.179 52.3339L162.278 52.6284L162.278 52.6284L161.179 52.3339ZM130.164 141.706L129.869 142.805L129.869 142.805L130.164 141.706ZM70.8754 125.82L70.5809 126.919L70.5809 126.919L70.8754 125.82ZM88.7016 32.9136L87.6025 32.6191L87.6025 32.6191L88.7016 32.9136ZM97.0631 28.0861L97.3576 26.987L97.3576 26.987L97.0631 28.0861ZM156.352 43.9724L156.057 45.0714C159.092 45.8848 160.893 49.0045 160.08 52.0394L161.179 52.3339L162.278 52.6284C163.417 48.3794 160.895 44.012 156.646 42.8733L156.352 43.9724ZM161.179 52.3339L160.08 52.0394L137.426 136.584L138.525 136.879L139.624 137.173L162.278 52.6284L161.179 52.3339ZM138.525 136.879L137.426 136.584C136.613 139.619 133.493 141.42 130.458 140.607L130.164 141.706L129.869 142.805C134.118 143.944 138.486 141.422 139.624 137.173L138.525 136.879ZM130.164 141.706L130.458 140.607L71.1699 124.721L70.8754 125.82L70.5809 126.919L129.869 142.805L130.164 141.706ZM70.8754 125.82L71.1699 124.721C68.1349 123.908 66.3337 120.788 67.147 117.753L66.0479 117.459L64.9488 117.164C63.8103 121.413 66.3319 125.781 70.5809 126.919L70.8754 125.82ZM66.0479 117.459L67.147 117.753L89.8007 33.2081L88.7016 32.9136L87.6025 32.6191L64.9488 117.164L66.0479 117.459ZM88.7016 32.9136L89.8007 33.2081C90.614 30.1731 93.7336 28.372 96.7686 29.1852L97.0631 28.0861L97.3576 26.987C93.1086 25.8485 88.7411 28.37 87.6025 32.6191L88.7016 32.9136ZM97.0631 28.0861L96.7686 29.1852L156.057 45.0715L156.352 43.9724L156.646 42.8733L97.3576 26.987L97.0631 28.0861Z" fill="#EFECFF" mask="url(#path-2-inside-1_2001_2587)"/>
</g>
<g filter="url(#filter1_dddd_2001_2587)">
<mask id="path-4-inside-2_2001_2587" fill="white">
<path d="M30.5945 43.9724C26.9526 44.9484 24.7911 48.6919 25.767 52.3339L48.4207 136.879C49.3966 140.521 53.1403 142.682 56.7822 141.706L116.071 125.82C119.713 124.844 121.874 121.101 120.898 117.459L98.2444 32.9136C97.2685 29.2716 93.525 27.1102 89.8829 28.0861L30.5945 43.9724Z"/>
</mask>
<path d="M30.5945 43.9724C26.9526 44.9484 24.7911 48.6919 25.767 52.3339L48.4207 136.879C49.3966 140.521 53.1403 142.682 56.7822 141.706L116.071 125.82C119.713 124.844 121.874 121.101 120.898 117.459L98.2444 32.9136C97.2685 29.2716 93.525 27.1102 89.8829 28.0861L30.5945 43.9724Z" fill="white"/>
<path d="M30.5945 43.9724L30.2999 42.8733L30.3 42.8733L30.5945 43.9724ZM25.767 52.3339L24.6679 52.6284L24.6679 52.6284L25.767 52.3339ZM48.4207 136.879L49.5198 136.584L48.4207 136.879ZM56.7822 141.706L57.0767 142.805L57.0767 142.805L56.7822 141.706ZM116.071 125.82L116.365 126.919L116.365 126.919L116.071 125.82ZM98.2444 32.9136L99.3435 32.6191L99.3435 32.6191L98.2444 32.9136ZM89.8829 28.0861L89.5884 26.987L89.5884 26.987L89.8829 28.0861ZM30.5945 43.9724L30.889 45.0714C27.8541 45.8848 26.0529 49.0045 26.8661 52.0394L25.767 52.3339L24.6679 52.6284C23.5294 48.3794 26.0512 44.012 30.2999 42.8733L30.5945 43.9724ZM25.767 52.3339L26.8661 52.0394L49.5198 136.584L48.4207 136.879L47.3216 137.173L24.6679 52.6284L25.767 52.3339ZM48.4207 136.879L49.5198 136.584C50.333 139.619 53.4527 141.42 56.4878 140.607L56.7822 141.706L57.0767 142.805C52.8278 143.944 48.4601 141.422 47.3216 137.173L48.4207 136.879ZM56.7822 141.706L56.4877 140.607L115.776 124.721L116.071 125.82L116.365 126.919L57.0767 142.805L56.7822 141.706ZM116.071 125.82L115.776 124.721C118.811 123.908 120.612 120.788 119.799 117.753L120.898 117.459L121.997 117.164C123.136 121.413 120.614 125.781 116.365 126.919L116.071 125.82ZM120.898 117.459L119.799 117.753L97.1453 33.2081L98.2444 32.9136L99.3435 32.6191L121.997 117.164L120.898 117.459ZM98.2444 32.9136L97.1453 33.2081C96.3321 30.1731 93.2124 28.372 90.1774 29.1852L89.8829 28.0861L89.5884 26.987C93.8375 25.8485 98.205 28.37 99.3435 32.6191L98.2444 32.9136ZM89.8829 28.0861L90.1774 29.1852L30.889 45.0715L30.5945 43.9724L30.3 42.8733L89.5884 26.987L89.8829 28.0861Z" fill="#F8F7FF" mask="url(#path-4-inside-2_2001_2587)"/>
</g>
<g filter="url(#filter2_dddd_2001_2587)">
<mask id="path-6-inside-3_2001_2587" fill="white">
<path d="M112.088 26.3191L137.068 51.2996V136.505C137.068 140.275 134.012 143.332 130.241 143.332H57.1219C53.3515 143.332 50.2949 140.275 50.2948 136.505V33.1462C50.2948 29.3757 53.3514 26.3191 57.1219 26.3191H112.088Z"/>
</mask>
<path d="M112.088 26.3191L137.068 51.2996V136.505C137.068 140.275 134.012 143.332 130.241 143.332H57.1219C53.3515 143.332 50.2949 140.275 50.2948 136.505V33.1462C50.2948 29.3757 53.3514 26.3191 57.1219 26.3191H112.088Z" fill="white"/>
<path d="M112.088 26.3191L112.892 25.5145L112.559 25.1812H112.088V26.3191ZM137.068 51.2996H138.206V50.8282L137.873 50.495L137.068 51.2996ZM137.068 136.505L138.206 136.505V136.505H137.068ZM130.241 143.332V144.47H130.241L130.241 143.332ZM57.1219 143.332L57.1219 144.47H57.1219V143.332ZM50.2948 136.505H49.1569V136.505L50.2948 136.505ZM50.2948 33.1462L49.1569 33.1462V33.1462H50.2948ZM57.1219 26.3191V25.1812H57.1219L57.1219 26.3191ZM112.088 26.3191L111.283 27.1237L136.264 52.1042L137.068 51.2996L137.873 50.495L112.892 25.5145L112.088 26.3191ZM137.068 51.2996H135.93V136.505H137.068H138.206V51.2996H137.068ZM137.068 136.505L135.93 136.505C135.93 139.647 133.383 142.194 130.241 142.194L130.241 143.332L130.241 144.47C134.64 144.47 138.206 140.903 138.206 136.505L137.068 136.505ZM130.241 143.332V142.194H57.1219V143.332V144.47H130.241V143.332ZM57.1219 143.332L57.122 142.194C53.9799 142.194 51.4327 139.647 51.4327 136.505L50.2948 136.505L49.1569 136.505C49.157 140.904 52.723 144.47 57.1219 144.47L57.1219 143.332ZM50.2948 136.505H51.4327V33.1462H50.2948H49.1569V136.505H50.2948ZM50.2948 33.1462L51.4327 33.1462C51.4327 30.0041 53.9799 27.457 57.122 27.457L57.1219 26.3191L57.1219 25.1812C52.723 25.1812 49.157 28.7473 49.1569 33.1462L50.2948 33.1462ZM57.1219 26.3191V27.457H112.088V26.3191V25.1812H57.1219V26.3191Z" fill="#EFECFF" mask="url(#path-6-inside-3_2001_2587)"/>
</g>
<g filter="url(#filter3_d_2001_2587)">
<path d="M112.088 26.3191L137.068 51.2993L115.501 51.2993C113.616 51.2993 112.088 49.771 112.088 47.8857L112.088 26.3191Z" fill="#EFECFF"/>
</g>
<rect x="66.0712" y="71.0205" width="35.4982" height="9.20324" rx="4.60162" fill="#AA95FF"/>
<rect x="66.0712" y="90.7417" width="48.6457" height="9.20324" rx="4.60162" fill="#AA95FF"/>
</g>
<defs>
<filter id="filter0_dddd_2001_2587" x="49.8136" y="24.8518" width="127.6" height="173.089" filterUnits="userSpaceOnUse" color-interpolation-filters="sRGB">
<feFlood flood-opacity="0" result="BackgroundImageFix"/>
<feColorMatrix in="SourceAlpha" type="matrix" values="0 0 0 0 0 0 0 0 0 0 0 0 0 0 0 0 0 0 127 0" result="hardAlpha"/>
<feOffset dy="3"/>
<feGaussianBlur stdDeviation="3"/>
<feColorMatrix type="matrix" values="0 0 0 0 0.576471 0 0 0 0 0.552941 0 0 0 0 0.705882 0 0 0 0.1 0"/>
<feBlend mode="normal" in2="BackgroundImageFix" result="effect1_dropShadow_2001_2587"/>
<feColorMatrix in="SourceAlpha" type="matrix" values="0 0 0 0 0 0 0 0 0 0 0 0 0 0 0 0 0 0 127 0" result="hardAlpha"/>
<feOffset dy="10"/>
<feGaussianBlur stdDeviation="5"/>
<feColorMatrix type="matrix" values="0 0 0 0 0.576471 0 0 0 0 0.552941 0 0 0 0 0.705882 0 0 0 0.09 0"/>
<feBlend mode="normal" in2="effect1_dropShadow_2001_2587" result="effect2_dropShadow_2001_2587"/>
<feColorMatrix in="SourceAlpha" type="matrix" values="0 0 0 0 0 0 0 0 0 0 0 0 0 0 0 0 0 0 127 0" result="hardAlpha"/>
<feOffset dy="23"/>
<feGaussianBlur stdDeviation="7"/>
<feColorMatrix type="matrix" values="0 0 0 0 0.576471 0 0 0 0 0.552941 0 0 0 0 0.705882 0 0 0 0.05 0"/>
<feBlend mode="normal" in2="effect2_dropShadow_2001_2587" result="effect3_dropShadow_2001_2587"/>
<feColorMatrix in="SourceAlpha" type="matrix" values="0 0 0 0 0 0 0 0 0 0 0 0 0 0 0 0 0 0 127 0" result="hardAlpha"/>
<feOffset dy="40"/>
<feGaussianBlur stdDeviation="8"/>
<feColorMatrix type="matrix" values="0 0 0 0 0.576471 0 0 0 0 0.552941 0 0 0 0 0.705882 0 0 0 0.01 0"/>
<feBlend mode="normal" in2="effect3_dropShadow_2001_2587" result="effect4_dropShadow_2001_2587"/>
<feBlend mode="normal" in="SourceGraphic" in2="effect4_dropShadow_2001_2587" result="shape"/>
</filter>
<filter id="filter1_dddd_2001_2587" x="9.53271" y="24.8518" width="127.6" height="173.089" filterUnits="userSpaceOnUse" color-interpolation-filters="sRGB">
<feFlood flood-opacity="0" result="BackgroundImageFix"/>
<feColorMatrix in="SourceAlpha" type="matrix" values="0 0 0 0 0 0 0 0 0 0 0 0 0 0 0 0 0 0 127 0" result="hardAlpha"/>
<feOffset dy="3"/>
<feGaussianBlur stdDeviation="3"/>
<feColorMatrix type="matrix" values="0 0 0 0 0.576471 0 0 0 0 0.552941 0 0 0 0 0.705882 0 0 0 0.1 0"/>
<feBlend mode="normal" in2="BackgroundImageFix" result="effect1_dropShadow_2001_2587"/>
<feColorMatrix in="SourceAlpha" type="matrix" values="0 0 0 0 0 0 0 0 0 0 0 0 0 0 0 0 0 0 127 0" result="hardAlpha"/>
<feOffset dy="10"/>
<feGaussianBlur stdDeviation="5"/>
<feColorMatrix type="matrix" values="0 0 0 0 0.576471 0 0 0 0 0.552941 0 0 0 0 0.705882 0 0 0 0.09 0"/>
<feBlend mode="normal" in2="effect1_dropShadow_2001_2587" result="effect2_dropShadow_2001_2587"/>
<feColorMatrix in="SourceAlpha" type="matrix" values="0 0 0 0 0 0 0 0 0 0 0 0 0 0 0 0 0 0 127 0" result="hardAlpha"/>
<feOffset dy="23"/>
<feGaussianBlur stdDeviation="7"/>
<feColorMatrix type="matrix" values="0 0 0 0 0.576471 0 0 0 0 0.552941 0 0 0 0 0.705882 0 0 0 0.05 0"/>
<feBlend mode="normal" in2="effect2_dropShadow_2001_2587" result="effect3_dropShadow_2001_2587"/>
<feColorMatrix in="SourceAlpha" type="matrix" values="0 0 0 0 0 0 0 0 0 0 0 0 0 0 0 0 0 0 127 0" result="hardAlpha"/>
<feOffset dy="40"/>
<feGaussianBlur stdDeviation="8"/>
<feColorMatrix type="matrix" values="0 0 0 0 0.576471 0 0 0 0 0.552941 0 0 0 0 0.705882 0 0 0 0.01 0"/>
<feBlend mode="normal" in2="effect3_dropShadow_2001_2587" result="effect4_dropShadow_2001_2587"/>
<feBlend mode="normal" in="SourceGraphic" in2="effect4_dropShadow_2001_2587" result="shape"/>
</filter>
<filter id="filter2_dddd_2001_2587" x="34.2948" y="23.3191" width="118.773" height="176.013" filterUnits="userSpaceOnUse" color-interpolation-filters="sRGB">
<feFlood flood-opacity="0" result="BackgroundImageFix"/>
<feColorMatrix in="SourceAlpha" type="matrix" values="0 0 0 0 0 0 0 0 0 0 0 0 0 0 0 0 0 0 127 0" result="hardAlpha"/>
<feOffset dy="3"/>
<feGaussianBlur stdDeviation="3"/>
<feColorMatrix type="matrix" values="0 0 0 0 0.576471 0 0 0 0 0.552941 0 0 0 0 0.705882 0 0 0 0.1 0"/>
<feBlend mode="normal" in2="BackgroundImageFix" result="effect1_dropShadow_2001_2587"/>
<feColorMatrix in="SourceAlpha" type="matrix" values="0 0 0 0 0 0 0 0 0 0 0 0 0 0 0 0 0 0 127 0" result="hardAlpha"/>
<feOffset dy="10"/>
<feGaussianBlur stdDeviation="5"/>
<feColorMatrix type="matrix" values="0 0 0 0 0.576471 0 0 0 0 0.552941 0 0 0 0 0.705882 0 0 0 0.09 0"/>
<feBlend mode="normal" in2="effect1_dropShadow_2001_2587" result="effect2_dropShadow_2001_2587"/>
<feColorMatrix in="SourceAlpha" type="matrix" values="0 0 0 0 0 0 0 0 0 0 0 0 0 0 0 0 0 0 127 0" result="hardAlpha"/>
<feOffset dy="23"/>
<feGaussianBlur stdDeviation="7"/>
<feColorMatrix type="matrix" values="0 0 0 0 0.576471 0 0 0 0 0.552941 0 0 0 0 0.705882 0 0 0 0.05 0"/>
<feBlend mode="normal" in2="effect2_dropShadow_2001_2587" result="effect3_dropShadow_2001_2587"/>
<feColorMatrix in="SourceAlpha" type="matrix" values="0 0 0 0 0 0 0 0 0 0 0 0 0 0 0 0 0 0 127 0" result="hardAlpha"/>
<feOffset dy="40"/>
<feGaussianBlur stdDeviation="8"/>
<feColorMatrix type="matrix" values="0 0 0 0 0.576471 0 0 0 0 0.552941 0 0 0 0 0.705882 0 0 0 0.01 0"/>
<feBlend mode="normal" in2="effect3_dropShadow_2001_2587" result="effect4_dropShadow_2001_2587"/>
<feBlend mode="normal" in="SourceGraphic" in2="effect4_dropShadow_2001_2587" result="shape"/>
</filter>
<filter id="filter3_d_2001_2587" x="108.674" y="26.3191" width="29.5317" height="29.5317" filterUnits="userSpaceOnUse" color-interpolation-filters="sRGB">
<feFlood flood-opacity="0" result="BackgroundImageFix"/>
<feColorMatrix in="SourceAlpha" type="matrix" values="0 0 0 0 0 0 0 0 0 0 0 0 0 0 0 0 0 0 127 0" result="hardAlpha"/>
<feOffset dx="-1.13786" dy="2.27572"/>
<feGaussianBlur stdDeviation="1.13786"/>
<feComposite in2="hardAlpha" operator="out"/>
<feColorMatrix type="matrix" values="0 0 0 0 0.658518 0 0 0 0 0.606839 0 0 0 0 0.867695 0 0 0 0.1 0"/>
<feBlend mode="normal" in2="BackgroundImageFix" result="effect1_dropShadow_2001_2587"/>
<feBlend mode="normal" in="SourceGraphic" in2="effect1_dropShadow_2001_2587" result="shape"/>
</filter>
<clipPath id="clip0_2001_2587">
<rect width="186" height="110" rx="12" fill="white"/>
</clipPath>
</defs>
</svg>
