<svg width="186" height="110" viewBox="0 0 186 110" fill="none" xmlns="http://www.w3.org/2000/svg">
<g clip-path="url(#clip0_2001_2744)">
<rect width="186" height="110" rx="12" fill="#F8F7FF"/>
<g filter="url(#filter0_dddd_2001_2744)">
<path d="M129.049 33.5658C129.377 28.9363 125.71 25 121.069 25L65.2113 25C60.5702 25 56.9031 28.9363 57.2313 33.5658L60.4225 78.5779C60.7195 82.7661 64.2038 86.0121 68.4025 86.0121L117.878 86.0121C122.076 86.0121 125.561 82.7661 125.858 78.5779L129.049 33.5658Z" fill="#DFD9FF"/>
<path d="M121.069 25.5693L65.2109 25.5693C60.9001 25.5695 57.494 29.2253 57.7988 33.5254L60.9902 78.5381C61.2662 82.4282 64.5024 85.4433 68.4023 85.4434L117.878 85.4434C121.778 85.4433 125.014 82.4282 125.29 78.5381L128.481 33.5254C128.786 29.2254 125.38 25.5695 121.069 25.5693Z" stroke="#EFECFF" stroke-width="1.13786"/>
</g>
<g filter="url(#filter1_dddd_2001_2744)">
<mask id="path-4-inside-1_2001_2744" fill="white">
<path d="M87.3775 53.749C89.0475 55.3231 91.2556 56.1997 93.5505 56.1997H141.033C146.202 56.1997 150.309 60.5443 150.019 65.7055L147.524 110.022C147.256 114.788 143.312 118.516 138.538 118.516H47.1366C42.3625 118.516 38.4191 114.788 38.1508 110.022L35.0262 54.5062C34.7357 49.345 38.8427 45.0005 44.012 45.0005H74.5227C76.8176 45.0005 79.0258 45.8771 80.6958 47.4512L87.3775 53.749Z"/>
</mask>
<path d="M87.3775 53.749C89.0475 55.3231 91.2556 56.1997 93.5505 56.1997H141.033C146.202 56.1997 150.309 60.5443 150.019 65.7055L147.524 110.022C147.256 114.788 143.312 118.516 138.538 118.516H47.1366C42.3625 118.516 38.4191 114.788 38.1508 110.022L35.0262 54.5062C34.7357 49.345 38.8427 45.0005 44.012 45.0005H74.5227C76.8176 45.0005 79.0258 45.8771 80.6958 47.4512L87.3775 53.749Z" fill="white"/>
<path d="M80.6958 47.4512L81.4762 46.6232L80.6958 47.4512ZM147.524 110.022L148.66 110.086L147.524 110.022ZM87.3775 53.749L86.597 54.577L87.3775 53.749ZM93.5505 56.1997V57.3376H141.033V56.1997V55.0618H93.5505V56.1997ZM150.019 65.7055L148.883 65.6416L146.388 109.958L147.524 110.022L148.66 110.086L151.155 65.7695L150.019 65.7055ZM138.538 118.516V117.378H47.1366V118.516V119.654H138.538V118.516ZM38.1508 110.022L39.2869 109.958L36.1623 54.4423L35.0262 54.5062L33.8902 54.5702L37.0148 110.086L38.1508 110.022ZM44.012 45.0005V46.1383H74.5227V45.0005V43.8626H44.012V45.0005ZM80.6958 47.4512L79.9153 48.2792L86.597 54.577L87.3775 53.749L88.1579 52.921L81.4762 46.6232L80.6958 47.4512ZM74.5227 45.0005V46.1383C76.5275 46.1383 78.4565 46.9042 79.9153 48.2792L80.6958 47.4512L81.4762 46.6232C79.5951 44.8501 77.1077 43.8626 74.5227 43.8626V45.0005ZM35.0262 54.5062L36.1623 54.4423C35.9085 49.9336 39.4962 46.1383 44.012 46.1383V45.0005V43.8626C38.1891 43.8626 33.5629 48.7565 33.8902 54.5702L35.0262 54.5062ZM47.1366 118.516V117.378C42.9661 117.378 39.5212 114.122 39.2869 109.958L38.1508 110.022L37.0148 110.086C37.317 115.455 41.7589 119.654 47.1366 119.654V118.516ZM147.524 110.022L146.388 109.958C146.154 114.122 142.709 117.378 138.538 117.378V118.516V119.654C143.916 119.654 148.358 115.455 148.66 110.086L147.524 110.022ZM141.033 56.1997V57.3376C145.549 57.3376 149.136 61.1329 148.883 65.6416L150.019 65.7055L151.155 65.7695C151.482 59.9557 146.856 55.0618 141.033 55.0618V56.1997ZM93.5505 56.1997V55.0618C91.5458 55.0618 89.6168 54.296 88.1579 52.921L87.3775 53.749L86.597 54.577C88.4781 56.3501 90.9655 57.3376 93.5505 57.3376V56.1997Z" fill="#EFECFF" mask="url(#path-4-inside-1_2001_2744)"/>
</g>
<path d="M107.707 87.5165C107.588 87.3035 107.32 87.0905 106.992 87.0601C106.843 87.0601 105.474 86.9688 104.253 86.9384C103.985 86.9384 103.27 86.9384 102.853 86.9384C102.794 86.9384 102.734 86.9384 102.675 86.9079C102.645 86.8775 102.585 86.8471 102.556 86.7862C102.437 86.4211 102.169 85.5691 101.871 84.9301C101.573 84.3823 101.216 83.8955 100.978 83.3782C100.71 82.8609 100.501 82.4653 100.471 82.3132C100.442 82.1611 101.603 82.6783 101.722 82.7392C101.811 82.7696 102.139 82.8913 102.258 82.8913C102.407 82.8913 102.526 82.8609 102.824 82.6175C103.151 82.3436 103.211 81.9785 103.181 81.6742C103.151 81.4612 102.943 81.1265 102.734 80.8222C102.526 80.5483 102.318 80.2136 102.228 79.9398C102.02 79.3008 101.871 78.6922 101.454 77.8402C101.156 77.262 100.442 76.8665 100.084 76.6535C99.4889 76.3187 98.8934 76.1362 98.8934 76.1362C98.2384 73.215 97.2558 71.9979 94.7845 71.298C92.5216 70.659 91.3306 70.2939 90.348 69.3506C90.1992 69.1984 90.0503 69.168 89.9312 69.2288C89.8121 69.3201 89.8121 69.4723 89.9014 69.6244C90.4969 70.7807 92.0154 71.724 94.1294 72.5151C95.7075 73.0933 96.571 74.0062 96.7794 75.4059C96.3328 75.4059 95.8266 75.1624 95.7075 75.132C95.5288 75.1016 95.4693 75.1016 95.4097 75.132C95.38 75.1624 95.3204 75.2233 95.3502 75.345C95.38 75.4972 95.5289 76.2275 95.8266 76.8056C96.1243 77.4142 96.2137 77.5663 96.3328 77.7185C96.2732 78.114 96.0648 79.7268 96.0648 81.2482C96.0648 82.7696 96.035 85.0518 95.9457 85.4169C95.9457 85.4169 95.7075 85.6299 95.1715 86.1472C94.6356 86.6341 91.4795 88.9771 90.1694 89.7987C89.0082 90.4985 85.5841 92.5068 82.9043 93.2371C81.8622 93.5414 81.6835 93.5414 81.6538 93.724C81.624 93.8153 81.7133 93.9065 81.892 93.9674C82.1004 94.0587 83.4998 94.576 83.4998 94.8194C83.47 95.4888 82.9043 96.1887 82.547 97.2841C82.3684 97.8927 81.7431 98.4404 81.0881 98.8664C80.7605 99.0794 80.433 99.262 80.1948 99.4141C79.9268 99.5663 79.7482 99.6576 79.5993 99.8401C79.3313 100.266 79.242 100.783 78.7061 101.331C78.1106 101.94 77.5151 102.64 77.0685 103.126C76.5623 103.674 75.9966 104.922 75.6095 105.317C75.4308 105.5 75.1629 105.652 74.9842 105.713C74.8354 105.774 74.4781 105.835 74.3887 106.048C74.2994 106.261 74.1208 106.687 74.2399 107.234C74.2994 107.539 74.5078 107.599 74.746 107.599C74.8651 107.599 74.9842 107.539 75.0735 107.478C75.1926 107.417 75.9072 106.869 76.5325 106.169C77.9617 104.496 79.51 102.214 80.701 101.362C81.9515 100.449 85.4947 99.1403 87.1026 98.1057C87.9065 97.558 88.77 96.7364 89.4548 96.0061C89.8121 95.641 90.1098 95.3367 90.348 95.0933C90.4671 94.9715 90.5564 94.8803 90.6458 94.8194C90.6755 94.789 90.7053 94.7585 90.7053 94.7585C91.1817 94.6977 94.7547 94.5455 98.0895 93.3284C99.5782 92.7807 100.591 91.8982 101.246 91.1375C101.752 90.5594 102.407 89.5248 102.526 89.464C102.585 89.4335 102.913 89.3727 102.973 89.3422C103.747 89.1901 104.402 89.1901 104.938 89.1901C105.057 89.1901 105.087 89.1901 105.146 89.1901C105.146 89.1901 104.461 90.2551 104.164 90.6202C103.866 91.0158 103.479 91.3505 103.151 91.5635C102.824 91.7765 102.496 91.9591 102.288 92.2634C102.109 92.5981 101.841 92.9633 101.216 93.2675C100.293 93.6935 100.114 93.9978 100.174 94.2717C100.203 94.5455 100.471 95.2454 100.739 95.2758C100.918 95.2758 101.216 95.1541 101.514 94.9411C102.407 94.363 104.58 92.2634 105.414 91.4114C106.248 90.529 107.349 88.8554 107.737 88.2468C107.826 88.1251 107.826 87.7295 107.707 87.5165Z" fill="#AA95FF"/>
</g>
<defs>
<filter id="filter0_dddd_2001_2744" x="52.2108" y="24" width="81.8585" height="80.0122" filterUnits="userSpaceOnUse" color-interpolation-filters="sRGB">
<feFlood flood-opacity="0" result="BackgroundImageFix"/>
<feColorMatrix in="SourceAlpha" type="matrix" values="0 0 0 0 0 0 0 0 0 0 0 0 0 0 0 0 0 0 127 0" result="hardAlpha"/>
<feOffset dy="1"/>
<feGaussianBlur stdDeviation="1"/>
<feColorMatrix type="matrix" values="0 0 0 0 0.596078 0 0 0 0 0.580392 0 0 0 0 0.721569 0 0 0 0.1 0"/>
<feBlend mode="normal" in2="BackgroundImageFix" result="effect1_dropShadow_2001_2744"/>
<feColorMatrix in="SourceAlpha" type="matrix" values="0 0 0 0 0 0 0 0 0 0 0 0 0 0 0 0 0 0 127 0" result="hardAlpha"/>
<feOffset dy="3"/>
<feGaussianBlur stdDeviation="1.5"/>
<feColorMatrix type="matrix" values="0 0 0 0 0.596078 0 0 0 0 0.580392 0 0 0 0 0.721569 0 0 0 0.09 0"/>
<feBlend mode="normal" in2="effect1_dropShadow_2001_2744" result="effect2_dropShadow_2001_2744"/>
<feColorMatrix in="SourceAlpha" type="matrix" values="0 0 0 0 0 0 0 0 0 0 0 0 0 0 0 0 0 0 127 0" result="hardAlpha"/>
<feOffset dy="7"/>
<feGaussianBlur stdDeviation="2"/>
<feColorMatrix type="matrix" values="0 0 0 0 0.596078 0 0 0 0 0.580392 0 0 0 0 0.721569 0 0 0 0.05 0"/>
<feBlend mode="normal" in2="effect2_dropShadow_2001_2744" result="effect3_dropShadow_2001_2744"/>
<feColorMatrix in="SourceAlpha" type="matrix" values="0 0 0 0 0 0 0 0 0 0 0 0 0 0 0 0 0 0 127 0" result="hardAlpha"/>
<feOffset dy="13"/>
<feGaussianBlur stdDeviation="2.5"/>
<feColorMatrix type="matrix" values="0 0 0 0 0.596078 0 0 0 0 0.580392 0 0 0 0 0.721569 0 0 0 0.01 0"/>
<feBlend mode="normal" in2="effect3_dropShadow_2001_2744" result="effect4_dropShadow_2001_2744"/>
<feBlend mode="normal" in="SourceGraphic" in2="effect4_dropShadow_2001_2744" result="shape"/>
</filter>
<filter id="filter1_dddd_2001_2744" x="30.0117" y="44.0005" width="125.021" height="92.5156" filterUnits="userSpaceOnUse" color-interpolation-filters="sRGB">
<feFlood flood-opacity="0" result="BackgroundImageFix"/>
<feColorMatrix in="SourceAlpha" type="matrix" values="0 0 0 0 0 0 0 0 0 0 0 0 0 0 0 0 0 0 127 0" result="hardAlpha"/>
<feOffset dy="1"/>
<feGaussianBlur stdDeviation="1"/>
<feColorMatrix type="matrix" values="0 0 0 0 0.596078 0 0 0 0 0.580392 0 0 0 0 0.721569 0 0 0 0.1 0"/>
<feBlend mode="normal" in2="BackgroundImageFix" result="effect1_dropShadow_2001_2744"/>
<feColorMatrix in="SourceAlpha" type="matrix" values="0 0 0 0 0 0 0 0 0 0 0 0 0 0 0 0 0 0 127 0" result="hardAlpha"/>
<feOffset dy="3"/>
<feGaussianBlur stdDeviation="1.5"/>
<feColorMatrix type="matrix" values="0 0 0 0 0.596078 0 0 0 0 0.580392 0 0 0 0 0.721569 0 0 0 0.09 0"/>
<feBlend mode="normal" in2="effect1_dropShadow_2001_2744" result="effect2_dropShadow_2001_2744"/>
<feColorMatrix in="SourceAlpha" type="matrix" values="0 0 0 0 0 0 0 0 0 0 0 0 0 0 0 0 0 0 127 0" result="hardAlpha"/>
<feOffset dy="7"/>
<feGaussianBlur stdDeviation="2"/>
<feColorMatrix type="matrix" values="0 0 0 0 0.596078 0 0 0 0 0.580392 0 0 0 0 0.721569 0 0 0 0.05 0"/>
<feBlend mode="normal" in2="effect2_dropShadow_2001_2744" result="effect3_dropShadow_2001_2744"/>
<feColorMatrix in="SourceAlpha" type="matrix" values="0 0 0 0 0 0 0 0 0 0 0 0 0 0 0 0 0 0 127 0" result="hardAlpha"/>
<feOffset dy="13"/>
<feGaussianBlur stdDeviation="2.5"/>
<feColorMatrix type="matrix" values="0 0 0 0 0.596078 0 0 0 0 0.580392 0 0 0 0 0.721569 0 0 0 0.01 0"/>
<feBlend mode="normal" in2="effect3_dropShadow_2001_2744" result="effect4_dropShadow_2001_2744"/>
<feBlend mode="normal" in="SourceGraphic" in2="effect4_dropShadow_2001_2744" result="shape"/>
</filter>
<clipPath id="clip0_2001_2744">
<rect width="186" height="110" rx="12" fill="white"/>
</clipPath>
</defs>
</svg>
