<svg width="186" height="110" viewBox="0 0 186 110" fill="none" xmlns="http://www.w3.org/2000/svg">
<rect width="186" height="110" rx="12" fill="#F8F7FF"/>
<g filter="url(#filter0_dddd_2001_2762)">
<mask id="path-2-inside-1_2001_2762" fill="white">
<path d="M84.8848 23C96.4546 23 106.31 30.3387 110.051 40.6152C113.207 39.1384 116.729 38.3125 120.444 38.3125C134.006 38.3126 145 49.3065 145 62.8682C145 70.8522 141.188 77.944 135.286 82.4287C131.542 85.5466 126.728 87.4237 121.475 87.4238H62.6006C50.6712 87.4238 41 77.7526 41 65.8232V63.8438C41 53.105 48.837 44.1976 59.1035 42.5264C62.2637 31.2607 72.6096 23 84.8848 23Z"/>
</mask>
<path d="M84.8848 23C96.4546 23 106.31 30.3387 110.051 40.6152C113.207 39.1384 116.729 38.3125 120.444 38.3125C134.006 38.3126 145 49.3065 145 62.8682C145 70.8522 141.188 77.944 135.286 82.4287C131.542 85.5466 126.728 87.4237 121.475 87.4238H62.6006C50.6712 87.4238 41 77.7526 41 65.8232V63.8438C41 53.105 48.837 44.1976 59.1035 42.5264C62.2637 31.2607 72.6096 23 84.8848 23Z" fill="white"/>
<path d="M84.8848 23V21.8621H84.8848L84.8848 23ZM110.051 40.6152L108.982 41.0044L109.407 42.1728L110.533 41.6459L110.051 40.6152ZM120.444 38.3125L120.444 37.1746H120.444V38.3125ZM145 62.8682L146.138 62.8682V62.8682H145ZM135.286 82.4287L134.598 81.5228L134.577 81.5381L134.558 81.5543L135.286 82.4287ZM121.475 87.4238V88.5617H121.475L121.475 87.4238ZM59.1035 42.5264L59.2863 43.6494L60.003 43.5328L60.1991 42.8337L59.1035 42.5264ZM84.8848 23V24.1379C95.9611 24.1379 105.399 31.163 108.982 41.0044L110.051 40.6152L111.12 40.226C107.221 29.5144 96.9481 21.8621 84.8848 21.8621V23ZM110.051 40.6152L110.533 41.6459C113.542 40.2381 116.9 39.4504 120.444 39.4504V38.3125V37.1746C116.559 37.1746 112.873 38.0387 109.569 39.5846L110.051 40.6152ZM120.444 38.3125L120.444 39.4504C133.378 39.4504 143.862 49.935 143.862 62.8682H145H146.138C146.138 48.6781 134.634 37.1747 120.444 37.1746L120.444 38.3125ZM145 62.8682L143.862 62.8682C143.862 70.4812 140.228 77.2437 134.598 81.5228L135.286 82.4287L135.975 83.3347C142.147 78.6442 146.138 71.2231 146.138 62.8682L145 62.8682ZM135.286 82.4287L134.558 81.5543C131.01 84.5085 126.452 86.2859 121.475 86.286L121.475 87.4238L121.475 88.5617C127.004 88.5616 132.073 86.5846 136.014 83.3031L135.286 82.4287ZM121.475 87.4238V86.286H62.6006V87.4238V88.5617H121.475V87.4238ZM62.6006 87.4238V86.286C51.2997 86.286 42.1379 77.1242 42.1379 65.8232H41H39.8621C39.8621 78.381 50.0428 88.5617 62.6006 88.5617V87.4238ZM41 65.8232H42.1379V63.8438H41H39.8621V65.8232H41ZM41 63.8438H42.1379C42.1379 53.6719 49.5615 45.2325 59.2863 43.6494L59.1035 42.5264L58.9207 41.4033C48.1126 43.1626 39.8621 52.5381 39.8621 63.8438H41ZM59.1035 42.5264L60.1991 42.8337C63.2251 32.0462 73.1329 24.1379 84.8848 24.1379L84.8848 23L84.8848 21.8621C72.0863 21.8622 61.3023 30.4751 58.0079 42.219L59.1035 42.5264Z" fill="#EFECFF" mask="url(#path-2-inside-1_2001_2762)"/>
</g>
<path d="M93.7441 48.6091C94.5773 48.6091 94.9941 48.6092 95.3076 48.8357C95.6213 49.0622 95.7531 49.4587 96.0166 50.2507L96.417 51.447C96.6005 51.9253 96.9324 52.3322 97.3633 52.6082L97.7676 52.8416C98.27 53.0996 98.8472 53.1716 99.3975 53.0447L100.861 52.6326C101.723 52.388 102.155 52.2657 102.536 52.4207C102.917 52.5757 103.141 52.9648 103.589 53.7419L104.181 54.7693C104.601 55.498 104.811 55.8629 104.77 56.2507C104.73 56.6385 104.449 56.9511 103.887 57.5759L102.649 58.9597C102.347 59.3425 102.132 60.0093 102.132 60.6091C102.132 61.2093 102.347 61.8766 102.649 62.2595L103.887 63.6423C104.449 64.2674 104.73 64.5806 104.77 64.9685C104.811 65.3562 104.6 65.7206 104.181 66.449L103.589 67.4763C103.141 68.2534 102.917 68.6426 102.536 68.7976C102.155 68.9526 101.723 68.8304 100.861 68.5857L99.3975 68.1736C98.847 68.0466 98.2692 68.1185 97.7666 68.3767L97.3633 68.6101C96.9324 68.8861 96.6003 69.2929 96.417 69.7712L96.0166 70.9685C95.7532 71.7602 95.6211 72.156 95.3076 72.3826C94.9941 72.609 94.5773 72.6091 93.7441 72.6091H92.4062C91.5731 72.6091 91.1564 72.609 90.8428 72.3826C90.5293 72.156 90.3972 71.7603 90.1338 70.9685L89.7334 69.7712C89.55 69.2929 89.2179 68.8861 88.7871 68.6101L88.3838 68.3767C87.8812 68.1185 87.3033 68.0466 86.7529 68.1736L85.2891 68.5857C84.427 68.8304 83.9953 68.9526 83.6142 68.7976C83.2333 68.6426 83.0093 68.2535 82.5615 67.4763L81.9687 66.449C81.5491 65.7207 81.3393 65.3562 81.3799 64.9685C81.4206 64.5806 81.7016 64.2675 82.2637 63.6423L83.501 62.2595C83.8034 61.8766 84.0185 61.2093 84.0185 60.6091C84.0185 60.0093 83.8033 59.3425 83.501 58.9597L82.2637 57.5759C81.7018 56.9511 81.4207 56.6385 81.3799 56.2507C81.3391 55.8629 81.5488 55.498 81.9687 54.7693L82.5615 53.7419C83.0094 52.9647 83.2333 52.5757 83.6142 52.4207C83.9953 52.2657 84.427 52.388 85.2891 52.6326L86.7529 53.0447C87.3032 53.1716 87.8803 53.0997 88.3828 52.8416L88.7871 52.6082C89.218 52.3322 89.5499 51.9253 89.7334 51.447L90.1338 50.2507C90.3973 49.4587 90.5291 49.0622 90.8428 48.8357C91.1564 48.6092 91.5731 48.6091 92.4062 48.6091H93.7441ZM93.0234 56.4001C90.7038 56.4001 88.8232 58.2807 88.8232 60.6003C88.8235 62.9198 90.704 64.7996 93.0234 64.7996C95.3428 64.7995 97.2234 62.9197 97.2236 60.6003C97.2236 58.2808 95.343 56.4002 93.0234 56.4001Z" fill="#AA95FF"/>
<defs>
<filter id="filter0_dddd_2001_2762" x="36" y="22" width="114" height="83.4238" filterUnits="userSpaceOnUse" color-interpolation-filters="sRGB">
<feFlood flood-opacity="0" result="BackgroundImageFix"/>
<feColorMatrix in="SourceAlpha" type="matrix" values="0 0 0 0 0 0 0 0 0 0 0 0 0 0 0 0 0 0 127 0" result="hardAlpha"/>
<feOffset dy="1"/>
<feGaussianBlur stdDeviation="1"/>
<feColorMatrix type="matrix" values="0 0 0 0 0.596078 0 0 0 0 0.580392 0 0 0 0 0.721569 0 0 0 0.1 0"/>
<feBlend mode="normal" in2="BackgroundImageFix" result="effect1_dropShadow_2001_2762"/>
<feColorMatrix in="SourceAlpha" type="matrix" values="0 0 0 0 0 0 0 0 0 0 0 0 0 0 0 0 0 0 127 0" result="hardAlpha"/>
<feOffset dy="3"/>
<feGaussianBlur stdDeviation="1.5"/>
<feColorMatrix type="matrix" values="0 0 0 0 0.596078 0 0 0 0 0.580392 0 0 0 0 0.721569 0 0 0 0.09 0"/>
<feBlend mode="normal" in2="effect1_dropShadow_2001_2762" result="effect2_dropShadow_2001_2762"/>
<feColorMatrix in="SourceAlpha" type="matrix" values="0 0 0 0 0 0 0 0 0 0 0 0 0 0 0 0 0 0 127 0" result="hardAlpha"/>
<feOffset dy="7"/>
<feGaussianBlur stdDeviation="2"/>
<feColorMatrix type="matrix" values="0 0 0 0 0.596078 0 0 0 0 0.580392 0 0 0 0 0.721569 0 0 0 0.05 0"/>
<feBlend mode="normal" in2="effect2_dropShadow_2001_2762" result="effect3_dropShadow_2001_2762"/>
<feColorMatrix in="SourceAlpha" type="matrix" values="0 0 0 0 0 0 0 0 0 0 0 0 0 0 0 0 0 0 127 0" result="hardAlpha"/>
<feOffset dy="13"/>
<feGaussianBlur stdDeviation="2.5"/>
<feColorMatrix type="matrix" values="0 0 0 0 0.596078 0 0 0 0 0.580392 0 0 0 0 0.721569 0 0 0 0.01 0"/>
<feBlend mode="normal" in2="effect3_dropShadow_2001_2762" result="effect4_dropShadow_2001_2762"/>
<feBlend mode="normal" in="SourceGraphic" in2="effect4_dropShadow_2001_2762" result="shape"/>
</filter>
</defs>
</svg>
