<svg width="186" height="110" viewBox="0 0 186 110" fill="none" xmlns="http://www.w3.org/2000/svg">
<rect width="186" height="110" rx="12" fill="#F8F7FF"/>
<path d="M78 42H101C105.418 42 109 45.5817 109 50V73C101.319 70.9621 95.971 64.0102 95.971 56.0634V54.9353L92.1693 54.8051C84.9575 54.5582 78.9732 49.1501 78 42Z" fill="#AA95FF"/>
<path d="M63 58H85C89.4183 58 93 61.5817 93 66V88C85.5667 86.0278 80.3913 79.3002 80.3913 71.6097V70.518L76.7122 70.392C69.7331 70.1531 63.9418 64.9194 63 58Z" fill="#AA95FF"/>
<path d="M94 27H116C120.418 27 124 30.5817 124 35V57C116.567 55.0278 111.391 48.3002 111.391 40.6097V39.518L107.712 39.392C100.733 39.1531 94.9418 33.9194 94 27Z" fill="#AA95FF"/>
</svg>
