<svg width="263" height="30" viewBox="0 0 263 30" fill="none" xmlns="http://www.w3.org/2000/svg">
<path d="M0.12 12.408C0.12 9.976 0.621333 7.81067 1.624 5.912C2.79733 3.672 4.55733 2.11467 6.904 1.24C8.20533 0.770666 9.56 0.535999 10.968 0.535999C12.376 0.535999 13.7307 0.642666 15.032 0.855999C16.3333 1.06933 17.1867 1.26133 17.592 1.432C17.72 2.22133 17.784 3.05333 17.784 3.928C17.784 4.78133 17.7627 5.74133 17.72 6.808L15.896 7.064C15.4267 4.58933 15.0107 3.224 14.648 2.968C14.456 2.81867 13.9547 2.65867 13.144 2.488C12.3547 2.31733 11.5653 2.232 10.776 2.232C8.42933 2.232 6.65867 3.096 5.464 4.824C4.26933 6.552 3.672 8.824 3.672 11.64C3.672 14.968 4.42933 17.4427 5.944 19.064C7.45867 20.6853 9.336 21.496 11.576 21.496C12.3867 21.496 13.144 21.4 13.848 21.208C14.5733 21.016 15.0427 20.8347 15.256 20.664C15.4907 20.4933 15.8427 19.1387 16.312 16.6L18.072 16.664C18.072 18.2853 17.9547 20.0133 17.72 21.848C17.0587 22.2107 16.056 22.5413 14.712 22.84C13.3893 23.1387 12.0347 23.288 10.648 23.288C7.17067 23.288 4.54667 22.264 2.776 20.216C1.00533 18.168 0.12 15.5653 0.12 12.408ZM27.0358 23.288C24.7318 23.288 22.9611 22.6053 21.7238 21.24C20.4864 19.8747 19.8678 17.9653 19.8678 15.512C19.8678 13.0587 20.5184 11.096 21.8198 9.624C23.1424 8.13067 24.9558 7.384 27.2598 7.384C29.5851 7.384 31.3664 8.07733 32.6038 9.464C33.8411 10.8293 34.4598 12.7387 34.4598 15.192C34.4598 17.6453 33.7984 19.608 32.4758 21.08C31.1744 22.552 29.3611 23.288 27.0358 23.288ZM22.9718 15.096C22.9718 16.9947 23.3558 18.552 24.1238 19.768C24.8918 20.984 25.9371 21.592 27.2598 21.592C28.5824 21.592 29.5211 21.272 30.0758 20.632C30.4598 20.2053 30.7691 19.5333 31.0038 18.616C31.2384 17.6773 31.3558 16.664 31.3558 15.576C31.3558 13.6773 30.9718 12.12 30.2038 10.904C29.4358 9.688 28.3904 9.08 27.0677 9.08C25.7451 9.08 24.8064 9.4 24.2518 10.04C23.8678 10.4667 23.5584 11.1493 23.3238 12.088C23.0891 13.0053 22.9718 14.008 22.9718 15.096ZM40.5888 23.768C39.9914 24.4293 39.6927 25.144 39.6927 25.912C39.6927 26.68 40.0127 27.288 40.6528 27.736C41.2928 28.184 42.3808 28.408 43.9167 28.408C45.4741 28.408 46.6794 28.088 47.5328 27.448C48.3861 26.808 48.8128 26.168 48.8128 25.528C48.8128 24.888 48.4608 24.4933 47.7568 24.344C47.0528 24.216 45.9328 24.1413 44.3968 24.12C42.8821 24.0987 41.6128 23.9813 40.5888 23.768ZM37.8368 21.048C37.8368 20.1947 38.1568 19.3733 38.7968 18.584C39.2448 18.0293 39.7568 17.528 40.3328 17.08C40.0128 16.9307 39.7141 16.7493 39.4368 16.536C38.3701 15.6827 37.8368 14.4027 37.8368 12.696C37.8368 10.968 38.4234 9.656 39.5968 8.76C40.7701 7.84267 42.2314 7.384 43.9808 7.384C45.5381 7.384 46.8288 7.71467 47.8528 8.376C49.2394 7.71467 50.5834 7.36267 51.8848 7.32C52.0981 7.68267 52.2048 8.12 52.2048 8.632C52.2048 9.12267 52.1728 9.464 52.1088 9.656C51.3834 9.48533 50.6261 9.4 49.8368 9.4C49.5168 9.4 49.2288 9.4 48.9728 9.4C49.5701 10.2107 49.8688 11.256 49.8688 12.536C49.8688 14.2427 49.2821 15.5547 48.1088 16.472C46.9354 17.368 45.4741 17.816 43.7248 17.816C42.7434 17.816 41.8794 17.688 41.1328 17.432C40.4928 18.2 40.1727 18.936 40.1727 19.64C40.1727 20.28 40.5354 20.664 41.2608 20.792C41.9008 20.8987 42.6154 20.952 43.4048 20.952C44.2154 20.952 44.8341 20.9627 45.2608 20.984C45.7088 20.984 46.2741 21.016 46.9568 21.08C47.6394 21.144 48.1728 21.2507 48.5568 21.4C48.9621 21.5493 49.3781 21.7413 49.8048 21.976C50.5941 22.424 50.9888 23.2133 50.9888 24.344C50.9888 25.88 50.2208 27.2027 48.6848 28.312C47.1488 29.4427 45.0794 30.008 42.4768 30.008C38.9781 30.008 37.2288 29.0053 37.2288 27C37.2288 26.2747 37.4314 25.6453 37.8368 25.112C38.2634 24.6 38.8714 24.056 39.6608 23.48C38.4448 23.096 37.8368 22.2853 37.8368 21.048ZM43.9488 16.248C45.9328 16.248 46.9248 15.032 46.9248 12.6C46.9248 10.168 45.8688 8.952 43.7568 8.952C41.7728 8.952 40.7808 10.168 40.7808 12.6C40.7808 15.032 41.8368 16.248 43.9488 16.248ZM54.6915 23L54.4995 21.752C55.5448 21.5387 56.1742 21.3253 56.3875 21.112C56.6222 20.8773 56.7395 20.4827 56.7395 19.928V10.712C56.7395 10.1573 56.6008 9.77333 56.3235 9.56C56.0675 9.32533 55.3955 9.10133 54.3075 8.888L54.4995 7.864L58.6275 7.448C58.7768 7.448 58.9262 7.74667 59.0755 8.344C59.2462 8.94133 59.3315 9.464 59.3315 9.912V10.104L59.5875 10.2L59.9715 9.752C61.3155 8.17333 62.9582 7.384 64.8995 7.384C66.2648 7.384 67.3422 7.8 68.1315 8.632C68.9208 9.44267 69.3155 10.584 69.3155 12.056V20.696C69.3155 20.952 69.3688 21.1227 69.4755 21.208C69.6035 21.272 69.7635 21.3253 69.9555 21.368L71.5235 21.752L71.3955 23H64.5475L64.3555 21.752C65.3155 21.56 65.9022 21.3467 66.1155 21.112C66.3288 20.8773 66.4355 20.4827 66.4355 19.928V13.016C66.4355 12.0133 66.2542 11.2133 65.8915 10.616C65.5288 9.99733 64.8142 9.688 63.7475 9.688C62.7022 9.688 61.5608 10.104 60.3235 10.936C60.1315 11.064 59.9928 11.16 59.9075 11.224C59.7155 11.4373 59.6195 11.832 59.6195 12.408V20.664C59.6195 20.8987 59.6515 21.0587 59.7155 21.144C59.8008 21.2293 59.9822 21.304 60.2595 21.368L61.6675 21.752L61.5395 23H54.6915ZM73.754 23L73.562 21.752C74.6073 21.5387 75.2367 21.3253 75.45 21.112C75.6847 20.8773 75.802 20.4827 75.802 19.928V10.744C75.802 10.296 75.6313 9.976 75.29 9.784C74.9487 9.57067 74.3087 9.368 73.37 9.176L73.562 8.152C75.8447 7.85333 77.434 7.704 78.33 7.704L78.682 8.024V20.696C78.682 20.952 78.7353 21.1227 78.842 21.208C78.97 21.272 79.13 21.3253 79.322 21.368L80.89 21.752L80.762 23H73.754ZM78.714 2.008C78.714 2.54133 78.5433 2.98933 78.202 3.352C77.882 3.71467 77.4447 3.896 76.89 3.896C76.3567 3.896 75.9087 3.736 75.546 3.416C75.2047 3.096 75.034 2.65867 75.034 2.104C75.034 1.528 75.194 1.06933 75.514 0.727999C75.8553 0.386666 76.314 0.216 76.89 0.216C78.106 0.216 78.714 0.813333 78.714 2.008ZM84.8763 18.616V9.816H82.7963L82.6683 8.44L84.2363 8.056C84.6416 7.94933 84.9083 7.71467 85.0363 7.352C85.1856 6.968 85.4416 5.77333 85.8043 3.768L87.7563 3.576V7.864H92.2043L91.9483 9.368L87.7563 9.848V17.656C87.7563 19.8747 88.4389 20.984 89.8043 20.984C90.5723 20.984 91.3829 20.664 92.2363 20.024L92.9083 20.952C91.7563 22.5093 90.3483 23.288 88.6843 23.288C87.4896 23.288 86.5509 22.872 85.8683 22.04C85.2069 21.208 84.8763 20.0667 84.8763 18.616ZM101.536 23.288C99.2318 23.288 97.4611 22.6053 96.2238 21.24C94.9864 19.8747 94.3678 17.9653 94.3678 15.512C94.3678 13.0587 95.0184 11.096 96.3198 9.624C97.6424 8.13067 99.4558 7.384 101.76 7.384C104.085 7.384 105.866 8.07733 107.104 9.464C108.341 10.8293 108.96 12.7387 108.96 15.192C108.96 17.6453 108.298 19.608 106.976 21.08C105.674 22.552 103.861 23.288 101.536 23.288ZM97.4718 15.096C97.4718 16.9947 97.8558 18.552 98.6238 19.768C99.3918 20.984 100.437 21.592 101.76 21.592C103.082 21.592 104.021 21.272 104.576 20.632C104.96 20.2053 105.269 19.5333 105.504 18.616C105.738 17.6773 105.856 16.664 105.856 15.576C105.856 13.6773 105.472 12.12 104.704 10.904C103.936 9.688 102.89 9.08 101.568 9.08C100.245 9.08 99.3064 9.4 98.7518 10.04C98.3678 10.4667 98.0584 11.1493 97.8238 12.088C97.5891 13.0053 97.4718 14.008 97.4718 15.096ZM118.261 23L118.037 21.72C118.847 21.5067 119.338 21.336 119.509 21.208C119.701 21.08 119.882 20.792 120.053 20.344L127.22 0.535999H129.877L137.205 20.856C137.311 21.176 137.941 21.4427 139.093 21.656L138.965 23H131.509L131.317 21.72C132.81 21.4213 133.557 21.0693 133.557 20.664C133.557 20.4933 133.514 20.2693 133.429 19.992L132.021 15.832H123.733L122.101 20.376C122.015 20.632 121.973 20.8133 121.973 20.92C121.973 21.0053 122.037 21.0587 122.165 21.08L124.437 21.688L124.309 23H118.261ZM124.341 14.136H131.477L128.341 5.144C128.191 4.696 128.117 4.38667 128.117 4.216H127.797L124.341 14.136ZM140.85 23L140.658 21.752C141.789 21.56 142.471 21.3467 142.706 21.112C142.962 20.8773 143.09 20.4293 143.09 19.768V4.056C143.09 3.39467 142.962 2.94667 142.706 2.712C142.471 2.47733 141.789 2.264 140.658 2.072L140.85 0.823999H148.69L148.818 2.072L146.834 2.456C146.407 2.54133 146.194 2.81867 146.194 3.288V20.536C146.194 21.0053 146.407 21.2827 146.834 21.368L148.818 21.752L148.69 23H140.85ZM162.643 21.752C163.987 21.5387 164.808 21.3253 165.107 21.112C165.406 20.8773 165.555 20.4293 165.555 19.768V2.488C162.803 2.53067 161.331 2.59466 161.139 2.68C160.947 2.76533 160.798 2.86133 160.691 2.968C160.435 3.30933 160.126 4.51467 159.763 6.584L158.131 6.456C158.11 6.136 158.099 5.51733 158.099 4.6C158.099 3.66133 158.195 2.40267 158.387 0.823999H175.827C176.019 2.40267 176.115 3.66133 176.115 4.6C176.115 5.51733 176.104 6.136 176.083 6.456L174.451 6.584C174.088 4.51467 173.768 3.30933 173.491 2.968C173.406 2.86133 173.267 2.76533 173.075 2.68C172.883 2.59466 171.411 2.53067 168.659 2.488V20.536C168.659 21.0267 168.872 21.304 169.299 21.368L171.763 21.752L171.635 23H162.835L162.643 21.752ZM184.216 23.288C182.061 23.288 180.386 22.552 179.192 21.08C178.018 19.608 177.432 17.752 177.432 15.512C177.432 13.2507 178.114 11.3307 179.48 9.752C180.845 8.17333 182.648 7.384 184.888 7.384C188.514 7.384 190.413 9.61333 190.584 14.072L189.752 14.68L180.472 15.192C180.472 19.1387 182.157 21.112 185.528 21.112C187 21.112 188.44 20.7493 189.848 20.024L190.52 21.08C189.816 21.656 188.898 22.168 187.768 22.616C186.637 23.064 185.453 23.288 184.216 23.288ZM180.568 13.72L187.192 13.144C187.405 13.1227 187.512 12.92 187.512 12.536C187.512 11.5973 187.256 10.7867 186.744 10.104C186.253 9.42133 185.41 9.08 184.216 9.08C183.021 9.08 182.146 9.48533 181.592 10.296C181.058 11.0853 180.717 12.2267 180.568 13.72ZM198.793 9.08C196.916 9.08 195.977 9.72 195.977 11C195.977 11.512 196.105 11.896 196.361 12.152C196.617 12.3867 196.798 12.568 196.905 12.696C197.033 12.8027 197.268 12.9413 197.609 13.112C197.95 13.2827 198.185 13.4107 198.313 13.496C198.462 13.56 198.75 13.6773 199.177 13.848C200.969 14.5947 202.228 15.2987 202.953 15.96C203.678 16.6213 204.041 17.56 204.041 18.776C204.041 19.992 203.497 21.048 202.409 21.944C201.342 22.84 199.87 23.288 197.993 23.288C197.161 23.288 196.297 23.2027 195.401 23.032C194.505 22.8613 193.854 22.6907 193.449 22.52C193.406 22.2427 193.385 21.6773 193.385 20.824C193.385 19.9707 193.481 19.0427 193.673 18.04L195.337 17.912C195.486 19.2773 195.593 20.12 195.657 20.44C195.742 20.7387 195.86 20.9307 196.009 21.016C196.692 21.4 197.588 21.592 198.697 21.592C200.425 21.592 201.289 20.8987 201.289 19.512C201.289 18.8507 201.033 18.3067 200.521 17.88C199.945 17.4107 199.284 17.016 198.537 16.696C196.574 15.8853 195.23 15.1493 194.505 14.488C193.801 13.8053 193.449 12.8667 193.449 11.672C193.449 10.4773 193.993 9.464 195.081 8.632C196.169 7.8 197.481 7.384 199.017 7.384C200.553 7.384 201.961 7.65067 203.241 8.184C203.262 8.35467 203.273 8.83467 203.273 9.624C203.273 10.4133 203.134 11.2453 202.857 12.12L201.385 12.28C201.236 10.616 200.99 9.66667 200.649 9.432C200.329 9.19733 199.71 9.08 198.793 9.08ZM208.314 18.616V9.816H206.234L206.106 8.44L207.674 8.056C208.079 7.94933 208.346 7.71467 208.474 7.352C208.623 6.968 208.879 5.77333 209.242 3.768L211.194 3.576V7.864H215.642L215.386 9.368L211.194 9.848V17.656C211.194 19.8747 211.876 20.984 213.242 20.984C214.01 20.984 214.82 20.664 215.674 20.024L216.346 20.952C215.194 22.5093 213.786 23.288 212.122 23.288C210.927 23.288 209.988 22.872 209.306 22.04C208.644 21.208 208.314 20.0667 208.314 18.616ZM218.285 23L218.093 21.752C219.139 21.5387 219.768 21.3253 219.981 21.112C220.216 20.8773 220.333 20.4827 220.333 19.928V10.744C220.333 10.296 220.163 9.976 219.821 9.784C219.48 9.57067 218.84 9.368 217.901 9.176L218.093 8.152C220.376 7.85333 221.965 7.704 222.861 7.704L223.213 8.024V20.696C223.213 20.952 223.267 21.1227 223.373 21.208C223.501 21.272 223.661 21.3253 223.853 21.368L225.421 21.752L225.293 23H218.285ZM223.245 2.008C223.245 2.54133 223.075 2.98933 222.733 3.352C222.413 3.71467 221.976 3.896 221.421 3.896C220.888 3.896 220.44 3.736 220.077 3.416C219.736 3.096 219.565 2.65867 219.565 2.104C219.565 1.528 219.725 1.06933 220.045 0.727999C220.387 0.386666 220.845 0.216 221.421 0.216C222.637 0.216 223.245 0.813333 223.245 2.008ZM228.192 23L228 21.752C229.045 21.5387 229.674 21.3253 229.888 21.112C230.122 20.8773 230.24 20.4827 230.24 19.928V10.712C230.24 10.1573 230.101 9.77333 229.824 9.56C229.568 9.32533 228.896 9.10133 227.808 8.888L228 7.864L232.128 7.448C232.277 7.448 232.426 7.74667 232.576 8.344C232.746 8.94133 232.832 9.464 232.832 9.912V10.104L233.088 10.2L233.472 9.752C234.816 8.17333 236.458 7.384 238.4 7.384C239.765 7.384 240.842 7.8 241.632 8.632C242.421 9.44267 242.816 10.584 242.816 12.056V20.696C242.816 20.952 242.869 21.1227 242.976 21.208C243.104 21.272 243.264 21.3253 243.456 21.368L245.024 21.752L244.896 23H238.048L237.856 21.752C238.816 21.56 239.402 21.3467 239.616 21.112C239.829 20.8773 239.936 20.4827 239.936 19.928V13.016C239.936 12.0133 239.754 11.2133 239.392 10.616C239.029 9.99733 238.314 9.688 237.248 9.688C236.202 9.688 235.061 10.104 233.824 10.936C233.632 11.064 233.493 11.16 233.408 11.224C233.216 11.4373 233.12 11.832 233.12 12.408V20.664C233.12 20.8987 233.152 21.0587 233.216 21.144C233.301 21.2293 233.482 21.304 233.76 21.368L235.168 21.752L235.04 23H228.192ZM250.87 23.768C250.273 24.4293 249.974 25.144 249.974 25.912C249.974 26.68 250.294 27.288 250.934 27.736C251.574 28.184 252.662 28.408 254.198 28.408C255.755 28.408 256.961 28.088 257.814 27.448C258.667 26.808 259.094 26.168 259.094 25.528C259.094 24.888 258.742 24.4933 258.038 24.344C257.334 24.216 256.214 24.1413 254.678 24.12C253.163 24.0987 251.894 23.9813 250.87 23.768ZM248.118 21.048C248.118 20.1947 248.438 19.3733 249.078 18.584C249.526 18.0293 250.038 17.528 250.614 17.08C250.294 16.9307 249.995 16.7493 249.718 16.536C248.651 15.6827 248.118 14.4027 248.118 12.696C248.118 10.968 248.705 9.656 249.878 8.76C251.051 7.84267 252.513 7.384 254.262 7.384C255.819 7.384 257.11 7.71467 258.134 8.376C259.521 7.71467 260.865 7.36267 262.166 7.32C262.379 7.68267 262.486 8.12 262.486 8.632C262.486 9.12267 262.454 9.464 262.39 9.656C261.665 9.48533 260.907 9.4 260.118 9.4C259.798 9.4 259.51 9.4 259.254 9.4C259.851 10.2107 260.15 11.256 260.15 12.536C260.15 14.2427 259.563 15.5547 258.39 16.472C257.217 17.368 255.755 17.816 254.006 17.816C253.025 17.816 252.161 17.688 251.414 17.432C250.774 18.2 250.454 18.936 250.454 19.64C250.454 20.28 250.817 20.664 251.542 20.792C252.182 20.8987 252.897 20.952 253.686 20.952C254.497 20.952 255.115 20.9627 255.542 20.984C255.99 20.984 256.555 21.016 257.238 21.08C257.921 21.144 258.454 21.2507 258.838 21.4C259.243 21.5493 259.659 21.7413 260.086 21.976C260.875 22.424 261.27 23.2133 261.27 24.344C261.27 25.88 260.502 27.2027 258.966 28.312C257.43 29.4427 255.361 30.008 252.758 30.008C249.259 30.008 247.51 29.0053 247.51 27C247.51 26.2747 247.713 25.6453 248.118 25.112C248.545 24.6 249.153 24.056 249.942 23.48C248.726 23.096 248.118 22.2853 248.118 21.048ZM254.23 16.248C256.214 16.248 257.206 15.032 257.206 12.6C257.206 10.168 256.15 8.952 254.038 8.952C252.054 8.952 251.062 10.168 251.062 12.6C251.062 15.032 252.118 16.248 254.23 16.248Z" fill="url(#paint0_linear_5_135)"/>
<defs>
<linearGradient id="paint0_linear_5_135" x1="-1" y1="11" x2="264" y2="11" gradientUnits="userSpaceOnUse">
<stop stop-color="#AA95FF"/>
<stop offset="0.504808" stop-color="#0071E9"/>
<stop offset="1" stop-color="#3B0093"/>
</linearGradient>
</defs>
</svg>
