<svg width="315" height="214" viewBox="0 0 315 214" fill="none" xmlns="http://www.w3.org/2000/svg">
<path d="M184.473 91.1379C165.01 91.254 145.245 90.3482 126.758 85.2154C108.27 80.0826 91.9195 70.3976 77.0552 59.0868C67.3238 51.7243 58.4749 45.8715 45.8403 46.7541C33.4867 47.4034 21.6704 52.0126 12.1402 59.8997C-3.93185 73.9743 -1.49318 99.9868 4.91704 118.288C14.5788 145.857 43.9822 164.995 68.9496 177.467C97.8188 191.89 129.521 200.274 161.317 205.082C189.188 209.309 224.978 212.398 249.109 194.189C271.29 177.49 277.375 139.307 271.94 113.527C270.617 105.913 266.563 99.0422 260.536 94.2037C244.952 82.8232 221.726 90.4179 204.214 90.8127C197.827 90.9521 191.115 91.1147 184.473 91.1379Z" fill="#F2F2F2"/>
<path d="M89.5742 0.999985V10.9869" stroke="#CFCFCF" stroke-width="1.97416" stroke-linecap="round" stroke-linejoin="round"/>
<path d="M84.5811 5.9935H94.568" stroke="#CFCFCF" stroke-width="1.97416" stroke-linecap="round" stroke-linejoin="round"/>
<path d="M279.048 200.065V210.052" stroke="#CFCFCF" stroke-width="1.97416" stroke-linecap="round" stroke-linejoin="round"/>
<path d="M274.053 205.059H284.04" stroke="#CFCFCF" stroke-width="1.97416" stroke-linecap="round" stroke-linejoin="round"/>
<path d="M14.1145 156.936C15.3715 156.936 16.3906 155.917 16.3906 154.66C16.3906 153.403 15.3715 152.383 14.1145 152.383C12.8574 152.383 11.8384 153.403 11.8384 154.66C11.8384 155.917 12.8574 156.936 14.1145 156.936Z" fill="#CFCFCF"/>
<path d="M207.907 11.312C209.164 11.312 210.184 10.293 210.184 9.03594C210.184 7.77889 209.164 6.75984 207.907 6.75984C206.65 6.75984 205.631 7.77889 205.631 9.03594C205.631 10.293 206.65 11.312 207.907 11.312Z" fill="#CFCFCF"/>
<path d="M79.1695 28.1274H202.961C206.041 28.1274 208.995 29.3509 211.173 31.5287C213.35 33.7065 214.574 36.6603 214.574 39.7402V187.013C214.574 190.093 213.35 193.046 211.173 195.224C208.995 197.402 206.041 198.625 202.961 198.625H63.3066C60.2267 198.625 57.2729 197.402 55.0951 195.224C52.9173 193.046 51.6938 190.093 51.6938 187.013V55.8818L79.1695 28.1274Z" fill="white" stroke="#BABABA" stroke-width="2.32254" stroke-linecap="round" stroke-linejoin="round"/>
<path d="M214.016 99.8941H86.3687V200.042H214.016V99.8941Z" fill="#D2D2D2"/>
<path d="M51.6938 55.8818H74.1993C75.5196 55.8757 76.7838 55.3469 77.7152 54.4111C78.6466 53.4753 79.1695 52.2087 79.1695 50.8884V28.1274L51.6938 55.8818Z" fill="white" stroke="#BABABA" stroke-width="2.32254" stroke-linecap="round" stroke-linejoin="round"/>
<path d="M213.389 67.9126H87.1351C82.2223 67.9126 78.2397 71.8952 78.2397 76.8079V103.819C78.2397 108.732 82.2223 112.714 87.1351 112.714H213.389C218.301 112.714 222.284 108.732 222.284 103.819V76.8079C222.284 71.8952 218.301 67.9126 213.389 67.9126Z" fill="white" stroke="#BABABA" stroke-width="2.32254" stroke-linecap="round" stroke-linejoin="round"/>
<path d="M102.766 98.1288C107.05 98.1288 110.523 94.6558 110.523 90.3715C110.523 86.0873 107.05 82.6142 102.766 82.6142C98.4818 82.6142 95.0088 86.0873 95.0088 90.3715C95.0088 94.6558 98.4818 98.1288 102.766 98.1288Z" fill="#D2D2D2"/>
<path d="M127.153 98.1288C131.437 98.1288 134.91 94.6558 134.91 90.3715C134.91 86.0873 131.437 82.6142 127.153 82.6142C122.869 82.6142 119.396 86.0873 119.396 90.3715C119.396 94.6558 122.869 98.1288 127.153 98.1288Z" fill="#D2D2D2"/>
<path d="M151.517 98.1288C155.801 98.1288 159.274 94.6558 159.274 90.3715C159.274 86.0873 155.801 82.6142 151.517 82.6142C147.232 82.6142 143.759 86.0873 143.759 90.3715C143.759 94.6558 147.232 98.1288 151.517 98.1288Z" fill="#D2D2D2"/>
<path d="M213.389 117.569H87.1351C82.2223 117.569 78.2397 121.551 78.2397 126.464V153.475C78.2397 158.388 82.2223 162.37 87.1351 162.37H213.389C218.301 162.37 222.284 158.388 222.284 153.475V126.464C222.284 121.551 218.301 117.569 213.389 117.569Z" fill="white" stroke="#BABABA" stroke-width="2.32254" stroke-linecap="round" stroke-linejoin="round"/>
<path d="M102.766 147.808C107.05 147.808 110.523 144.335 110.523 140.051C110.523 135.766 107.05 132.293 102.766 132.293C98.4818 132.293 95.0088 135.766 95.0088 140.051C95.0088 144.335 98.4818 147.808 102.766 147.808Z" fill="#D2D2D2"/>
<path d="M127.153 147.808C131.437 147.808 134.91 144.335 134.91 140.051C134.91 135.766 131.437 132.293 127.153 132.293C122.869 132.293 119.396 135.766 119.396 140.051C119.396 144.335 122.869 147.808 127.153 147.808Z" fill="#D2D2D2"/>
<path d="M151.517 147.808C155.801 147.808 159.274 144.335 159.274 140.051C159.274 135.766 155.801 132.293 151.517 132.293C147.232 132.293 143.759 135.766 143.759 140.051C143.759 144.335 147.232 147.808 151.517 147.808Z" fill="#D2D2D2"/>
<path d="M213.389 167.248H87.1351C82.2223 167.248 78.2397 171.23 78.2397 176.143V203.154C78.2397 208.067 82.2223 212.05 87.1351 212.05H213.389C218.301 212.05 222.284 208.067 222.284 203.154V176.143C222.284 171.23 218.301 167.248 213.389 167.248Z" fill="white" stroke="#BABABA" stroke-width="2.32254" stroke-linecap="round" stroke-linejoin="round"/>
<path d="M102.766 197.464C107.05 197.464 110.523 193.991 110.523 189.707C110.523 185.423 107.05 181.949 102.766 181.949C98.4818 181.949 95.0088 185.423 95.0088 189.707C95.0088 193.991 98.4818 197.464 102.766 197.464Z" fill="#D2D2D2"/>
<path d="M127.153 197.464C131.437 197.464 134.91 193.991 134.91 189.707C134.91 185.423 131.437 181.949 127.153 181.949C122.869 181.949 119.396 185.423 119.396 189.707C119.396 193.991 122.869 197.464 127.153 197.464Z" fill="#D2D2D2"/>
<path d="M151.517 197.464C155.801 197.464 159.274 193.991 159.274 189.707C159.274 185.423 155.801 181.949 151.517 181.949C147.232 181.949 143.759 185.423 143.759 189.707C143.759 193.991 147.232 197.464 151.517 197.464Z" fill="#D2D2D2"/>
<path d="M224.816 124.49C251.407 124.49 272.963 102.934 272.963 76.3432C272.963 49.7527 251.407 28.1969 224.816 28.1969C198.226 28.1969 176.67 49.7527 176.67 76.3432C176.67 102.934 198.226 124.49 224.816 124.49Z" fill="white" stroke="#BABABA" stroke-width="2.32254" stroke-linecap="round" stroke-linejoin="round"/>
<path d="M259.003 111.274L271.824 124.095" stroke="#BABABA" stroke-width="2.32254" stroke-linecap="round" stroke-linejoin="round"/>
<path d="M270.392 117.871L266.412 122.034C264.621 123.907 264.688 126.877 266.561 128.668L301.145 161.728C303.018 163.519 305.988 163.452 307.778 161.579L311.759 157.415C313.549 155.543 313.482 152.573 311.609 150.782L277.025 117.721C275.152 115.931 272.182 115.998 270.392 117.871Z" fill="white" stroke="#BABABA" stroke-width="2.32254" stroke-linecap="round" stroke-linejoin="round"/>
</svg>
